<svg width="174" height="70" viewBox="0 0 174 70" fill="none" xmlns="http://www.w3.org/2000/svg">
<path d="M153.263 3.2666H1.43308C0.642149 3.2666 0.000976562 4.10234 0.000976562 5.13327V8.8666C0.000976562 9.89753 0.642149 10.7333 1.43308 10.7333H153.263C154.054 10.7333 154.695 9.89753 154.695 8.8666V5.13327C154.695 4.10234 154.054 3.2666 153.263 3.2666Z" fill="#1AA367"/>
<path d="M157.109 5.0459C157.358 5.0459 157.552 5.16135 157.692 5.39226C157.858 5.66568 157.941 6.11914 157.941 6.75259C157.941 7.38455 157.858 7.83876 157.69 8.11521C157.551 8.34309 157.358 8.45705 157.109 8.45705C156.86 8.45705 156.659 8.33245 156.506 8.08334C156.354 7.83269 156.277 7.38684 156.277 6.74578C156.277 6.11685 156.361 5.66419 156.529 5.38769C156.668 5.15981 156.861 5.0459 157.109 5.0459ZM157.109 5.57683C157.05 5.57683 156.997 5.60189 156.95 5.65201C156.904 5.70063 156.868 5.78874 156.842 5.91633C156.808 6.08195 156.791 6.36068 156.791 6.75259C156.791 7.14454 156.807 7.41419 156.837 7.56151C156.867 7.70735 156.905 7.8046 156.95 7.85318C156.997 7.90181 157.05 7.92612 157.109 7.92612C157.169 7.92612 157.222 7.90181 157.269 7.85318C157.315 7.80306 157.351 7.7142 157.377 7.58657C157.411 7.42254 157.428 7.14454 157.428 6.75259C157.428 6.36068 157.413 6.09179 157.382 5.94596C157.352 5.79863 157.313 5.70063 157.267 5.65201C157.221 5.60189 157.169 5.57683 157.109 5.57683ZM158.279 7.54103L158.768 7.47494C158.782 7.61924 158.824 7.73394 158.893 7.81902C158.961 7.90255 159.041 7.94432 159.13 7.94432C159.233 7.94432 159.32 7.89042 159.391 7.78257C159.462 7.67318 159.497 7.5091 159.497 7.29038C159.497 7.08528 159.462 6.93184 159.391 6.83006C159.321 6.72679 159.229 6.67513 159.116 6.67513C158.975 6.67513 158.849 6.75642 158.737 6.91896L158.338 6.84373L158.59 5.10517H159.889V5.70441H158.963L158.886 6.27183C158.995 6.20043 159.107 6.16473 159.221 6.16473C159.439 6.16473 159.624 6.268 159.776 6.4746C159.927 6.68119 160.003 6.94934 160.003 7.27899C160.003 7.55391 159.941 7.79928 159.819 8.01497C159.652 8.30967 159.421 8.45705 159.125 8.45705C158.888 8.45705 158.696 8.37426 158.547 8.20864C158.397 8.04306 158.308 7.82051 158.279 7.54103Z" fill="#252B41" fill-opacity="0.64"/>
<path d="M35.9084 17.2666H1.43308C0.642149 17.2666 0.000976562 18.1023 0.000976562 19.1333V22.8666C0.000976562 23.8975 0.642149 24.7333 1.43308 24.7333H35.9084C36.6993 24.7333 37.3405 23.8975 37.3405 22.8666V19.1333C37.3405 18.1023 36.6993 17.2666 35.9084 17.2666Z" fill="#BF30D2"/>
<path d="M39.7539 19.0459C40.002 19.0459 40.1961 19.1614 40.3361 19.3923C40.5029 19.6657 40.586 20.1191 40.586 20.7526C40.586 21.3846 40.5022 21.8388 40.3343 22.1152C40.1957 22.3431 40.002 22.457 39.7539 22.457C39.5044 22.457 39.3035 22.3324 39.151 22.0833C38.9981 21.8327 38.9219 21.3868 38.9219 20.7458C38.9219 20.1169 39.0057 19.6642 39.1736 19.3877C39.3121 19.1598 39.5058 19.0459 39.7539 19.0459ZM39.7539 19.5768C39.6945 19.5768 39.6415 19.6019 39.595 19.652C39.5484 19.7006 39.5123 19.7887 39.4865 19.9163C39.4528 20.0819 39.4356 20.3607 39.4356 20.7526C39.4356 21.1445 39.451 21.4142 39.4811 21.5615C39.5115 21.7073 39.5495 21.8046 39.595 21.8532C39.6415 21.9018 39.6945 21.9261 39.7539 21.9261C39.8134 21.9261 39.8663 21.9018 39.9129 21.8532C39.9598 21.8031 39.9959 21.7142 40.0214 21.5866C40.0554 21.4225 40.0722 21.1445 40.0722 20.7526C40.0722 20.3607 40.0568 20.0918 40.0267 19.946C39.9963 19.7986 39.958 19.7006 39.9115 19.652C39.866 19.6019 39.8134 19.5768 39.7539 19.5768ZM41.8799 22.4001V21.7279H40.8309V21.1673L41.9425 19.0459H42.3553V21.165H42.6733V21.7279H42.3553V22.4001H41.8799ZM41.8799 21.165V20.0234L41.2906 21.165H41.8799Z" fill="#252B41" fill-opacity="0.64"/>
<path d="M97.634 31.4224H1.43308C0.642149 31.4224 0.000976562 32.2581 0.000976562 33.289V37.0224C0.000976562 38.0533 0.642149 38.889 1.43308 38.889H97.634C98.4249 38.889 99.0661 38.0533 99.0661 37.0224V33.289C99.0661 32.2581 98.4249 31.4224 97.634 31.4224Z" fill="#F5C630"/>
<path d="M101.48 33.2014C101.728 33.2014 101.922 33.3169 102.062 33.5478C102.229 33.8212 102.312 34.2747 102.312 34.9081C102.312 35.5401 102.228 35.9943 102.06 36.2707C101.921 36.4986 101.728 36.6126 101.48 36.6126C101.23 36.6126 101.029 36.488 100.877 36.2389C100.724 35.9882 100.647 35.5424 100.647 34.9013C100.647 34.2724 100.732 33.8197 100.899 33.5432C101.038 33.3153 101.231 33.2014 101.48 33.2014ZM101.48 33.7323C101.42 33.7323 101.367 33.7574 101.321 33.8075C101.274 33.8561 101.238 33.9443 101.212 34.0718C101.178 34.2374 101.162 34.5162 101.162 34.9081C101.162 35.3001 101.177 35.5697 101.207 35.717C101.237 35.8629 101.275 35.9601 101.321 36.0087C101.367 36.0573 101.42 36.0816 101.48 36.0816C101.539 36.0816 101.592 36.0573 101.639 36.0087C101.685 35.9586 101.722 35.8697 101.747 35.7421C101.781 35.5781 101.798 35.3001 101.798 34.9081C101.798 34.5162 101.783 34.2473 101.752 34.1015C101.722 33.9541 101.684 33.8561 101.637 33.8075C101.592 33.7574 101.539 33.7323 101.48 33.7323ZM102.625 35.6692L103.1 35.594C103.115 35.752 103.156 35.8728 103.223 35.9563C103.289 36.0399 103.37 36.0816 103.464 36.0816C103.565 36.0816 103.65 36.0315 103.719 35.9312C103.789 35.831 103.824 35.6957 103.824 35.5256C103.824 35.3646 103.791 35.237 103.724 35.1428C103.658 35.0486 103.577 35.0015 103.481 35.0015C103.418 35.0015 103.343 35.0175 103.256 35.0494L103.31 34.5276C103.443 34.5322 103.544 34.4949 103.614 34.4159C103.684 34.3354 103.719 34.2291 103.719 34.0969C103.719 33.9845 103.694 33.8949 103.642 33.8281C103.591 33.7612 103.523 33.7278 103.438 33.7278C103.354 33.7278 103.282 33.7658 103.223 33.8417C103.163 33.9177 103.127 34.0286 103.114 34.1744L102.661 34.0741C102.693 33.8721 102.74 33.7111 102.803 33.5911C102.867 33.4695 102.956 33.3746 103.069 33.3062C103.183 33.2364 103.31 33.2014 103.452 33.2014C103.693 33.2014 103.886 33.3017 104.032 33.5022C104.152 33.6663 104.212 33.8516 104.212 34.0582C104.212 34.3514 104.089 34.5853 103.843 34.76C103.99 34.801 104.107 34.8929 104.194 35.0357C104.283 35.1785 104.327 35.3509 104.327 35.553C104.327 35.8462 104.245 36.0961 104.081 36.3026C103.917 36.5092 103.712 36.6126 103.467 36.6126C103.235 36.6126 103.043 36.5259 102.89 36.3528C102.738 36.1781 102.649 35.9502 102.625 35.6692Z" fill="#252B41" fill-opacity="0.64"/>
<path d="M11.2689 45.1111H1.43308C0.642149 45.1111 0.000976562 45.9468 0.000976562 46.9778V50.7111C0.000976562 51.742 0.642149 52.5778 1.43308 52.5778H11.2689C12.0598 52.5778 12.701 51.742 12.701 50.7111V46.9778C12.701 45.9468 12.0598 45.1111 11.2689 45.1111Z" fill="#1277D9"/>
<path d="M15.1143 46.8901C15.3626 46.8901 15.5566 47.0054 15.6965 47.2364C15.8632 47.5099 15.9465 47.9635 15.9465 48.5967C15.9465 49.2286 15.8625 49.6831 15.6947 49.9594C15.556 50.1871 15.3626 50.3015 15.1143 50.3015C14.8649 50.3015 14.6639 50.1769 14.5112 49.9277C14.3586 49.6771 14.2822 49.2309 14.2822 48.5902C14.2822 47.9611 14.3661 47.5085 14.534 47.2317C14.6727 47.004 14.8661 46.8901 15.1143 46.8901ZM15.1143 47.4212C15.0549 47.4212 15.0019 47.4459 14.9553 47.4963C14.9087 47.5449 14.8725 47.6331 14.8469 47.7605C14.8131 47.9261 14.7962 48.2047 14.7962 48.5967C14.7962 48.9887 14.8113 49.2585 14.8416 49.4059C14.8719 49.5515 14.9098 49.6486 14.9553 49.6976C15.0019 49.7461 15.0549 49.7704 15.1143 49.7704C15.1738 49.7704 15.2268 49.7461 15.2734 49.6976C15.32 49.6472 15.3562 49.5585 15.3818 49.4307C15.4156 49.2669 15.4325 48.9887 15.4325 48.5967C15.4325 48.2047 15.4174 47.9359 15.3871 47.7903C15.3568 47.6429 15.3183 47.5449 15.2717 47.4963C15.2262 47.4459 15.1738 47.4212 15.1143 47.4212ZM17.9359 49.6495V50.2445H16.2139C16.2326 50.0196 16.2885 49.8068 16.3818 49.6061C16.475 49.4041 16.6592 49.1367 16.9342 48.8044C17.1556 48.5351 17.2914 48.3531 17.3415 48.2575C17.4091 48.1249 17.4429 47.9947 17.4429 47.8655C17.4429 47.7227 17.4132 47.613 17.3538 47.5374C17.2955 47.4599 17.2145 47.4212 17.1108 47.4212C17.0082 47.4212 16.9266 47.4613 16.866 47.5416C16.8054 47.6223 16.7704 47.7558 16.7611 47.9429L16.2716 47.879C16.3008 47.5267 16.3922 47.2737 16.5461 47.1202C16.6999 46.9667 16.8922 46.8901 17.123 46.8901C17.3759 46.8901 17.5746 46.9788 17.7191 47.1566C17.8636 47.3344 17.9359 47.5556 17.9359 47.8197C17.9359 47.97 17.9149 48.1137 17.873 48.2505C17.8321 48.3858 17.7669 48.5277 17.6772 48.6765C17.6177 48.7755 17.5105 48.9173 17.3555 49.1026C17.2005 49.2879 17.102 49.4111 17.0601 49.4717C17.0193 49.5324 16.9861 49.5917 16.9604 49.6495H17.9359Z" fill="#252B41" fill-opacity="0.64"/>
<path d="M5.93459 59.4221H1.43308C0.642149 59.4221 0.000976562 60.2579 0.000976562 61.2888V65.0221C0.000976562 66.053 0.642149 66.8888 1.43308 66.8888H5.93459C6.72552 66.8888 7.36669 66.053 7.36669 65.0221V61.2888C7.36669 60.2579 6.72552 59.4221 5.93459 59.4221Z" fill="#FF543E"/>
<path d="M9.7804 61.2014C10.0286 61.2014 10.2227 61.3167 10.3625 61.5477C10.5292 61.8212 10.6125 62.2747 10.6125 62.908C10.6125 63.5399 10.5286 63.9944 10.3608 64.2707C10.2221 64.4984 10.0286 64.6127 9.7804 64.6127C9.53096 64.6127 9.32993 64.4882 9.17727 64.239C9.02461 63.9884 8.94824 63.5422 8.94824 62.9015C8.94824 62.2724 9.03216 61.8198 9.2 61.543C9.33867 61.3153 9.53214 61.2014 9.7804 61.2014ZM9.7804 61.7325C9.72093 61.7325 9.66791 61.7572 9.62129 61.8076C9.57468 61.8562 9.53855 61.9444 9.51292 62.0718C9.47912 62.2374 9.46222 62.516 9.46222 62.908C9.46222 63.3 9.47737 63.5698 9.50766 63.7172C9.53798 63.8628 9.57586 63.9599 9.62129 64.0089C9.66791 64.0574 9.72093 64.0817 9.7804 64.0817C9.83983 64.0817 9.89285 64.0574 9.93947 64.0089C9.98608 63.9585 10.0222 63.8698 10.0478 63.7419C10.0816 63.5781 10.0985 63.3 10.0985 62.908C10.0985 62.516 10.0834 62.2472 10.0531 62.1016C10.0228 61.9541 9.98433 61.8562 9.93771 61.8076C9.89228 61.7572 9.83983 61.7325 9.7804 61.7325ZM12.1999 64.5553H11.7086V62.1427C11.5291 62.3611 11.3176 62.523 11.074 62.628V62.047C11.2022 61.9919 11.3415 61.8888 11.4918 61.7367C11.6422 61.5836 11.7453 61.4049 11.8013 61.2014H12.1999V64.5553Z" fill="#252B41" fill-opacity="0.64"/>
</svg>
